<svg id="Capa_1" data-name="Capa 1" xmlns="http://www.w3.org/2000/svg" viewBox="0 0 425.2 105.95"><title>agile_logo</title><polygon points="0 0 425.2 0 425.2 105.95 0 105.95 0 0 0 0" fill="#004e9c"/><path d="M134.85,44.21C119.82,63,112,81.2,117.3,85s21.86-8.35,36.89-27.09,22.89-37,17.55-40.78S149.88,25.47,134.85,44.21Zm-2.56,2.65c-15,18.74-22.77,37.08-17.27,41s22.13-8.15,37.17-26.89S175,23.85,169.46,20,147.32,28.11,132.29,46.86Z" fill="#fbca2e" fill-rule="evenodd"/><polygon points="152.7 46.8 158 46.81 159.93 41.98 161.87 46.81 167.04 46.82 163.06 50.49 164.34 55.54 159.93 52.76 155.53 55.54 156.8 50.49 152.7 46.8" fill="#fbca2e" fill-rule="evenodd"/><path d="M135.68,63.76v-25H149V40.2H137.46v9.93h10.7v1.43h-10.7V62.34h11.86v1.42Zm-17.92,0v-25h1.78V62.22h11.93v1.54Zm-9,0v-25h1.78v25Zm-13.17.62c-7.92,0-10-6.37-10-13.13,0-7.69,2.78-12.86,10.31-12.86a23.41,23.41,0,0,1,5.53.88l-.7,1.63a11.86,11.86,0,0,0-4.79-1.09c-6.1,0-8.5,4.18-8.5,11.44,0,6,1.51,11.7,8.23,11.7a12.61,12.61,0,0,0,5.52-1.81V53.37H95.67V51.94h7.15V62.25C100.23,63.49,98.34,64.38,95.55,64.38Zm-23.48-23L66.86,54.57h10Zm8.11,22.36-2.89-7.84h-11l-3.09,7.84H61.41l10.16-25h1.2l9.42,25Z" fill="#fff" fill-rule="evenodd"/><path d="M174.47,49.32l-1.05-2.85h-4l-1.13,2.85h-.65l3.68-9.07h.43l3.42,9.07Zm-2.94-8.11L169.64,46h3.61Z" fill="#fff"/><path d="M178.38,49.46a4.77,4.77,0,0,1-2.06-.39l.21-.51a3.8,3.8,0,0,0,1.9.44,1.33,1.33,0,0,0,1.5-1.38c0-.89-.8-1.13-1.67-1.4s-2-.64-2-1.71c0-1.26,1-1.73,2.33-1.73a5.37,5.37,0,0,1,1.81.42l-.22.5a3.55,3.55,0,0,0-1.72-.46c-.84,0-1.58.31-1.58,1.23,0,.72.69.94,1.47,1.18,1,.31,2.16.6,2.16,2S179.58,49.46,178.38,49.46Z" fill="#fff"/><path d="M183.92,49.46a4.8,4.8,0,0,1-2.06-.39l.21-.51A3.84,3.84,0,0,0,184,49a1.32,1.32,0,0,0,1.49-1.38c0-.89-.79-1.13-1.66-1.4s-2-.64-2-1.71c0-1.26,1-1.73,2.32-1.73a5.37,5.37,0,0,1,1.81.42l-.21.5a3.58,3.58,0,0,0-1.72-.46c-.84,0-1.59.31-1.59,1.23,0,.72.69.94,1.47,1.18,1,.31,2.16.6,2.16,2S185.13,49.46,183.92,49.46Z" fill="#fff"/><path d="M190.12,49.46c-2,0-2.66-1.51-2.66-3.38s.62-3.3,2.66-3.3,2.65,1.47,2.65,3.3S192.17,49.46,190.12,49.46Zm0-6.22c-1.52,0-2,1.27-2,2.84s.4,2.92,2,2.92,2-1.35,2-2.92S191.75,43.24,190.12,43.24Z" fill="#fff"/><path d="M196.8,49.46c-1.89,0-2.66-1.33-2.66-3.29s.75-3.39,2.7-3.39a6,6,0,0,1,1.84.4l-.21.51a4.25,4.25,0,0,0-1.64-.45c-1.6,0-2.07,1.29-2.07,2.93s.43,2.83,2.05,2.83a4.23,4.23,0,0,0,1.69-.45l.21.5A5.51,5.51,0,0,1,196.8,49.46Z" fill="#fff"/><path d="M200.24,41.21v-1h.68v1Zm.06,8.11v-6.4h.57v6.4Z" fill="#fff"/><path d="M206.91,49.32c0-.16-.2-.59-.22-.81a2.14,2.14,0,0,1-1.87,1c-1.12,0-2.24-.53-2.24-1.82s.67-2.15,3.39-2.15h.66v-.58c0-1-.41-1.67-1.47-1.67a4.36,4.36,0,0,0-2.09.55l-.21-.51a5.72,5.72,0,0,1,2.28-.5,1.85,1.85,0,0,1,2.06,2.06v2.52c0,.5.09,1.15.17,2ZM206.64,46h-.47c-2.27,0-3,.48-3,1.65,0,.82.56,1.38,1.62,1.38a2,2,0,0,0,1.82-1Z" fill="#fff"/><path d="M211.61,49.92c-1.43-.27-2.14-.94-2.14-2.14v-4.4h-1v-.46h1v-1.6H210v1.6h1.46v.46H210v4.4c0,.91.49,1.4,1.73,1.61Z" fill="#fff"/><path d="M213,41.21v-1h.68v1Zm.06,8.11v-6.4h.57v6.4Z" fill="#fff"/><path d="M218,49.46c-2,0-2.66-1.51-2.66-3.38s.62-3.3,2.66-3.3,2.65,1.47,2.65,3.3S220,49.46,218,49.46Zm0-6.22c-1.52,0-2,1.27-2,2.84s.4,2.92,2,2.92,2-1.35,2-2.92S219.58,43.24,218,43.24Z" fill="#fff"/><path d="M226.27,49.32V45.4c0-1.17-.22-2.16-1.63-2.16a2.06,2.06,0,0,0-1.77,1.43v4.65h-.58v-5c0-.54-.08-.83-.11-1.36h.46l.18,1a2.32,2.32,0,0,1,1.91-1.14c1.6,0,2.11,1,2.11,2.5v4Z" fill="#fff"/><path d="M234.42,49.46c-2,0-2.66-1.51-2.66-3.38s.61-3.3,2.66-3.3,2.64,1.47,2.64,3.3S236.46,49.46,234.42,49.46Zm0-6.22c-1.53,0-2,1.27-2,2.84s.41,2.92,2,2.92,2-1.35,2-2.92S236,43.24,234.42,43.24Z" fill="#fff"/><path d="M239.6,42v.94h1.31v.46H239.6v5.94H239V43.38H238v-.46H239V42c0-1.26.74-2,2.16-2.12l.14.51C239.85,40.55,239.6,41.15,239.6,42Z" fill="#fff"/><path d="M248.78,49.54c-2.87,0-3.61-2.31-3.61-4.76,0-2.79,1-4.66,3.74-4.66a8.25,8.25,0,0,1,2,.32l-.25.59a4.3,4.3,0,0,0-1.74-.4c-2.21,0-3.08,1.52-3.08,4.15,0,2.18.54,4.24,3,4.24a4.72,4.72,0,0,0,2-.65V45.55h-2V45h2.59v3.74A5.59,5.59,0,0,1,248.78,49.54Z" fill="#fbca2e"/><path d="M253.64,46.25c0,1.53.46,2.75,2,2.75a4,4,0,0,0,2-.58l.17.52a5.22,5.22,0,0,1-2.26.52c-1.86,0-2.54-1.5-2.54-3.28,0-1.48.57-3.4,2.52-3.4s2.52,1.57,2.52,3.47Zm1.89-3c-1.23,0-1.82,1-1.91,2.55h3.87C257.49,44.11,256.93,43.24,255.53,43.24Z" fill="#fbca2e"/><path d="M262.12,49.46c-2,0-2.66-1.51-2.66-3.38s.62-3.3,2.66-3.3,2.65,1.47,2.65,3.3S264.17,49.46,262.12,49.46Zm0-6.22c-1.52,0-2,1.27-2,2.84s.4,2.92,2,2.92,2-1.35,2-2.92S263.75,43.24,262.12,43.24Z" fill="#fbca2e"/><path d="M268.83,52.08c-2.08,0-2.83-.68-2.83-1.75,0-.82.85-1.28,1.4-1.4-.45-.19-.9-.49-.9-1a1.43,1.43,0,0,1,.56-1,2.41,2.41,0,0,1-.74-1.8,2.26,2.26,0,0,1,2.39-2.34,2.55,2.55,0,0,1,1.07.18c.52,0,1.08-.11,1.75-.14l-.21.5h-1a2.39,2.39,0,0,1-1.6,4.19,3.15,3.15,0,0,1-1.31-.32,1,1,0,0,0-.37.69c0,.4.27.61,1.91.79,2.13.23,2.63.89,2.63,1.6C271.6,51.49,270.35,52.08,268.83,52.08Zm-.88-3c-.9.19-1.33.75-1.33,1.24,0,.74.55,1.29,2.21,1.29,1.5,0,2.15-.57,2.15-1.35S270.06,49.28,268,49.09Zm.79-5.85a1.91,1.91,0,0,0,0,3.81c1.31,0,1.78-.88,1.78-1.95A1.66,1.66,0,0,0,268.74,43.24Z" fill="#fbca2e"/><path d="M276.13,43.59a1.64,1.64,0,0,0-1-.35c-.83,0-1.26,1.18-1.47,1.6v4.48h-.58v-5a12.26,12.26,0,0,0-.11-1.43h.46l.19,1.2c.26-.5.72-1.34,1.61-1.34a2.2,2.2,0,0,1,1.15.3Z" fill="#fbca2e"/><path d="M281.54,49.32c0-.16-.2-.59-.22-.81a2.14,2.14,0,0,1-1.87,1c-1.12,0-2.24-.53-2.24-1.82s.67-2.15,3.39-2.15h.66v-.58c0-1-.41-1.67-1.47-1.67a4.36,4.36,0,0,0-2.09.55l-.21-.51a5.73,5.73,0,0,1,2.29-.5,1.84,1.84,0,0,1,2.05,2.06v2.52c0,.5.09,1.15.17,2ZM281.27,46h-.47c-2.27,0-3,.48-3,1.65,0,.82.56,1.38,1.62,1.38a2,2,0,0,0,1.82-1Z" fill="#fbca2e"/><path d="M286.42,49.46a2.3,2.3,0,0,1-1.91-.93v3.31h-.58v-7a14.87,14.87,0,0,0-.11-1.89h.46l.21,1a2.24,2.24,0,0,1,1.89-1.16c1.87,0,2.45,1.57,2.45,3.37S288,49.46,286.42,49.46Zm-.15-6.22a2.06,2.06,0,0,0-1.78,1.44V48a2.19,2.19,0,0,0,1.85,1c1.11,0,1.88-.91,1.88-2.88C288.22,44.5,287.76,43.24,286.27,43.24Z" fill="#fbca2e"/><path d="M294.5,49.32V45.48c0-1.33-.28-2.24-1.61-2.24a2.06,2.06,0,0,0-1.8,1.44v4.64h-.56v-9.2h.57v3.8A2.26,2.26,0,0,1,293,42.78c1.64,0,2.09,1.17,2.09,2.39v4.15Z" fill="#fbca2e"/><path d="M297.06,41.21v-1h.67v1Zm.06,8.11v-6.4h.57v6.4Z" fill="#fbca2e"/><path d="M302.06,49.46c-1.89,0-2.66-1.33-2.66-3.29s.76-3.39,2.7-3.39a5.9,5.9,0,0,1,1.84.4l-.21.51a4.21,4.21,0,0,0-1.64-.45c-1.6,0-2.07,1.29-2.07,2.93s.43,2.83,2.06,2.83a4.23,4.23,0,0,0,1.68-.45l.21.5A5.46,5.46,0,0,1,302.06,49.46Z" fill="#fbca2e"/><path d="M309,49.32V40.25h.65v9.07Z" fill="#fbca2e"/><path d="M315.84,49.32V45.4c0-1.17-.23-2.16-1.63-2.16a2.09,2.09,0,0,0-1.78,1.43v4.65h-.57v-5c0-.54-.08-.83-.11-1.36h.46l.18,1a2.32,2.32,0,0,1,1.91-1.14c1.59,0,2.11,1,2.11,2.5v4Z" fill="#fbca2e"/><path d="M319.26,42v.94h1.32v.46h-1.32v5.94h-.57V43.38h-1.06v-.46h1.06V42c0-1.26.74-2,2.16-2.12l.14.51C319.52,40.55,319.26,41.15,319.26,42Z" fill="#fbca2e"/><path d="M324.05,49.46c-2,0-2.66-1.51-2.66-3.38s.62-3.3,2.66-3.3,2.65,1.47,2.65,3.3S326.1,49.46,324.05,49.46Zm0-6.22c-1.52,0-2,1.27-2,2.84s.4,2.92,2,2.92,2-1.35,2-2.92S325.68,43.24,324.05,43.24Z" fill="#fbca2e"/><path d="M331.47,43.59a1.64,1.64,0,0,0-1-.35c-.83,0-1.26,1.18-1.47,1.6v4.48h-.58v-5a12.26,12.26,0,0,0-.11-1.43h.46l.18,1.2c.27-.5.73-1.34,1.62-1.34a2.14,2.14,0,0,1,1.14.3Z" fill="#fbca2e"/><path d="M340.79,49.32V45.26c0-1-.2-2-1.66-2a2.17,2.17,0,0,0-1.76,1.5v4.58h-.58V45.26c0-1.22-.53-2-1.59-2a2.07,2.07,0,0,0-1.75,1.43v4.65h-.58V44.39c0-.53-.07-1-.11-1.47h.46l.2,1a2.23,2.23,0,0,1,1.86-1.14,1.87,1.87,0,0,1,1.92,1.41,2.41,2.41,0,0,1,2-1.41c1.41,0,2.17.74,2.17,2.45v4.09Z" fill="#fbca2e"/><path d="M347.38,49.32c0-.16-.2-.59-.23-.81a2.12,2.12,0,0,1-1.86,1c-1.12,0-2.24-.53-2.24-1.82s.67-2.15,3.39-2.15h.66v-.58c0-1-.41-1.67-1.47-1.67a4.33,4.33,0,0,0-2.09.55l-.21-.51a5.72,5.72,0,0,1,2.28-.5,1.85,1.85,0,0,1,2.06,2.06v2.52c0,.5.09,1.15.17,2ZM347.11,46h-.48c-2.26,0-3,.48-3,1.65,0,.82.56,1.38,1.62,1.38a2,2,0,0,0,1.82-1Z" fill="#fbca2e"/><path d="M352.08,49.92c-1.43-.27-2.14-.94-2.14-2.14v-4.4h-1v-.46h1v-1.6h.57v1.6H352v.46h-1.46v4.4c0,.91.49,1.4,1.72,1.61Z" fill="#fbca2e"/><path d="M353.42,41.21v-1h.68v1Zm.06,8.11v-6.4h.57v6.4Z" fill="#fbca2e"/><path d="M358.42,49.46c-2,0-2.66-1.51-2.66-3.38s.62-3.3,2.66-3.3,2.65,1.47,2.65,3.3S360.47,49.46,358.42,49.46Zm0-6.22c-1.53,0-2,1.27-2,2.84s.4,2.92,2,2.92,2-1.35,2-2.92S360.05,43.24,358.42,43.24Z" fill="#fbca2e"/><path d="M366.74,49.32V45.4c0-1.17-.23-2.16-1.63-2.16a2.09,2.09,0,0,0-1.78,1.43v4.65h-.57v-5c0-.54-.08-.83-.11-1.36h.46l.18,1a2.32,2.32,0,0,1,1.91-1.14c1.6,0,2.11,1,2.11,2.5v4Z" fill="#fbca2e"/><path d="M168.58,63.32V54.26h.64v8.5h4.33v.56Z" fill="#fff"/><path d="M178.69,63.32c0-.16-.2-.59-.23-.81a2.12,2.12,0,0,1-1.86,1c-1.12,0-2.24-.53-2.24-1.82s.67-2.15,3.39-2.15h.66v-.58c0-1.06-.41-1.67-1.47-1.67a4.44,4.44,0,0,0-2.09.54l-.21-.5a5.86,5.86,0,0,1,2.28-.5A1.86,1.86,0,0,1,179,58.84v2.52c0,.5.08,1.15.17,2ZM178.42,60h-.48c-2.27,0-3,.48-3,1.65,0,.82.57,1.38,1.63,1.38a2,2,0,0,0,1.82-1Z" fill="#fff"/><path d="M183.5,63.46a2.46,2.46,0,0,1-1.89-1l-.18.81H181a14.33,14.33,0,0,0,.12-2V54.11h.57v3.82a2.31,2.31,0,0,1,1.92-1.15c1.75,0,2.41,1.52,2.41,3.3S185.32,63.46,183.5,63.46Zm0-6.22a2.17,2.17,0,0,0-1.91,1.44v3.25A2,2,0,0,0,183.36,63c1.49,0,2-1.19,2-2.89C185.36,58.09,184.61,57.24,183.53,57.24Z" fill="#fff"/><path d="M190,63.46c-2,0-2.66-1.52-2.66-3.38s.61-3.3,2.66-3.3,2.65,1.47,2.65,3.3S192.05,63.46,190,63.46Zm0-6.22c-1.53,0-2,1.27-2,2.84s.41,2.92,2,2.92,2-1.35,2-2.92S191.63,57.24,190,57.24Z" fill="#fff"/><path d="M197.43,57.59a1.68,1.68,0,0,0-1-.35c-.82,0-1.26,1.18-1.47,1.6v4.48h-.57v-5a12.26,12.26,0,0,0-.11-1.43h.46l.18,1.2c.27-.5.73-1.34,1.61-1.34a2.12,2.12,0,0,1,1.15.31Z" fill="#fff"/><path d="M202.83,63.32c0-.16-.19-.59-.22-.81a2.12,2.12,0,0,1-1.86,1c-1.12,0-2.24-.53-2.24-1.82s.67-2.15,3.39-2.15h.65v-.58c0-1.06-.4-1.67-1.47-1.67a4.43,4.43,0,0,0-2.08.54l-.21-.5a5.86,5.86,0,0,1,2.28-.5,1.86,1.86,0,0,1,2.06,2.06v2.52c0,.5.08,1.15.17,2ZM202.57,60h-.48c-2.27,0-3,.48-3,1.65,0,.82.56,1.38,1.63,1.38a2,2,0,0,0,1.82-1Z" fill="#fff"/><path d="M207.54,63.92c-1.43-.27-2.15-.94-2.15-2.14v-4.4h-1v-.46h1v-1.6H206v1.6h1.46v.46H206v4.4c0,.91.49,1.4,1.72,1.61Z" fill="#fff"/><path d="M211.25,63.46c-2.05,0-2.66-1.52-2.66-3.38s.61-3.3,2.66-3.3,2.64,1.47,2.64,3.3S213.29,63.46,211.25,63.46Zm0-6.22c-1.53,0-2.05,1.27-2.05,2.84s.41,2.92,2.05,2.92,2-1.35,2-2.92S212.87,57.24,211.25,57.24Z" fill="#fff"/><path d="M218.67,57.59a1.68,1.68,0,0,0-1-.35c-.83,0-1.26,1.18-1.47,1.6v4.48h-.57v-5a11.8,11.8,0,0,0-.12-1.43h.47l.18,1.2c.26-.5.73-1.34,1.61-1.34a2.12,2.12,0,0,1,1.15.31Z" fill="#fff"/><path d="M220,55.21v-1h.67v1Zm.05,8.11v-6.4h.58v6.4Z" fill="#fff"/><path d="M223,60.25c0,1.53.47,2.75,2,2.75a4,4,0,0,0,2-.58l.17.52a5.22,5.22,0,0,1-2.26.52c-1.86,0-2.54-1.5-2.54-3.28,0-1.49.57-3.4,2.52-3.4s2.52,1.57,2.52,3.47Zm1.9-3c-1.24,0-1.83,1-1.91,2.55h3.87C226.86,58.11,226.3,57.24,224.9,57.24Z" fill="#fff"/><path d="M230.83,63.46a4.8,4.8,0,0,1-2.06-.39l.21-.51a3.86,3.86,0,0,0,1.91.44,1.33,1.33,0,0,0,1.5-1.38c0-.89-.8-1.13-1.67-1.4s-2-.64-2-1.71c0-1.26,1-1.73,2.32-1.73a5.37,5.37,0,0,1,1.81.42l-.21.5a3.7,3.7,0,0,0-1.72-.46c-.84,0-1.58.31-1.58,1.23,0,.72.68.94,1.47,1.18,1,.31,2.15.6,2.15,2S232,63.46,230.83,63.46Z" fill="#fff"/><path d="M237.89,55.21v-1h.67v1Zm.05,8.11v-6.4h.58v6.4Z" fill="#fff"/><path d="M244.52,63.32V59.4c0-1.17-.22-2.16-1.62-2.16a2.07,2.07,0,0,0-1.78,1.43v4.65h-.57v-5c0-.53-.09-.82-.12-1.35h.47l.18,1a2.29,2.29,0,0,1,1.9-1.15c1.6,0,2.12,1,2.12,2.5v4Z" fill="#fff"/><path d="M250.72,63.32V54.26h4.82v.51h-4.17v3.6h3.88v.52h-3.88V62.8h4.3v.52Z" fill="#fff"/><path d="M261.62,63.32l-.18-1a2.19,2.19,0,0,1-1.92,1.15c-1.53,0-2-1-2-2.51v-4h.58v3.92c0,1.16.21,2.16,1.58,2.16a2,2,0,0,0,1.72-1.43V56.92H262v5c0,.53.08.83.11,1.36Z" fill="#fff"/><path d="M267.06,57.59a1.67,1.67,0,0,0-1-.35c-.83,0-1.26,1.18-1.48,1.6v4.48H264v-5a12.26,12.26,0,0,0-.11-1.43h.46l.18,1.2c.27-.5.73-1.34,1.61-1.34a2.08,2.08,0,0,1,1.15.31Z" fill="#fff"/><path d="M270.8,63.46c-2.05,0-2.66-1.52-2.66-3.38s.61-3.3,2.66-3.3,2.65,1.47,2.65,3.3S272.84,63.46,270.8,63.46Zm0-6.22c-1.53,0-2.05,1.27-2.05,2.84S269.16,63,270.8,63s2-1.35,2-2.92S272.42,57.24,270.8,57.24Z" fill="#fff"/><path d="M277.63,63.46a2.32,2.32,0,0,1-1.92-.93v3.31h-.57v-7a15,15,0,0,0-.11-1.89h.46l.21,1a2.24,2.24,0,0,1,1.89-1.16c1.86,0,2.45,1.57,2.45,3.37S279.24,63.46,277.63,63.46Zm-.15-6.22a2,2,0,0,0-1.78,1.44V62a2.17,2.17,0,0,0,1.85,1c1.1,0,1.87-.91,1.87-2.88C279.42,58.5,279,57.24,277.48,57.24Z" fill="#fff"/><path d="M282,60.25c0,1.53.46,2.75,2,2.75a4,4,0,0,0,2-.58l.16.52a5.18,5.18,0,0,1-2.25.52c-1.86,0-2.55-1.5-2.55-3.28,0-1.49.57-3.4,2.52-3.4s2.52,1.57,2.52,3.47Zm1.89-3c-1.23,0-1.82,1-1.9,2.55h3.86C285.89,58.11,285.33,57.24,283.93,57.24Z" fill="#fff"/></svg>